<svg xmlns="http://www.w3.org/2000/svg" xmlns:xlink="http://www.w3.org/1999/xlink" width="873" height="119" viewBox="0 0 873 119">
  <defs>
    <clipPath id="clip-path">
      <rect id="Rectangle_2354" data-name="Rectangle 2354" width="873" height="119" transform="translate(454 520)" fill="#fff" stroke="#707070" stroke-width="1"/>
    </clipPath>
  </defs>
  <g id="Mask_Group_278" data-name="Mask Group 278" transform="translate(-454 -520)" opacity="0.32" clip-path="url(#clip-path)">
    <g id="Group_71553" data-name="Group 71553" transform="translate(447 402.303)" opacity="0.1">
      <g id="Group_71532" data-name="Group 71532" transform="translate(0.037 0)">
        <path id="Path_14243" data-name="Path 14243" d="M449.205,1.113h61.25a4.074,4.074,0,0,1,1.866,1.778c1.021,2.278,2.042,4.5,3.1,6.724a228.98,228.98,0,0,1,9.258,21.7c1.549,4.334,2.851,8.78,4.119,13.086.915,2.973,1.8,5.946,2.781,8.891a47.59,47.59,0,0,0,15.348,22.838c2.112,1.778,4.224,3.473,6.371,5.168,3.414,2.7,6.935,5.473,10.1,8.446,9.469,9.085,14.89,20.31,16.509,34.48l.317,3a191.036,191.036,0,0,0,3.379,22.06,334.312,334.312,0,0,1,7.991,51.983c.387,4.945,1.232,11.391,4.33,17.532,3.907,7.863,10.56,12.642,19.642,14.253a44.393,44.393,0,0,0,7.075.583,40.157,40.157,0,0,0,21.191-6.14c9.4-5.64,16.228-13.809,20.98-24.95,4.048-9.474,4.647-19.449,4.858-28.089a122.189,122.189,0,0,1,2.147-20.616c3.2-15.142,12-27.506,26.119-36.786,5.386-3.529,11.229-6.668,16.861-9.78l3.837-2.084c23.9-13.2,20.769-35.48,18.3-44.454a15.253,15.253,0,0,0-4.224-6.307c-5.069-5.14-12.109-6.307-18.34-7a128.491,128.491,0,0,0-13.869-.611c-2.006,0-4.013.028-6.019.028-1.971.028-3.978.028-5.984.028H685.23a76.266,76.266,0,0,1-14.644-1.5c-18.621-3.862-34.885-12.225-49.634-25.505-4.752-4.279-8.554-9.613-11.9-16.809-.563-1.111-.7-1.556-.352-1.945h28.689a6.193,6.193,0,0,1,2.464,2.556c4.576,7.085,9.4,12.2,15.242,16.142,11.3,7.529,24.5,11.03,41.608,11.03,2.816,0,5.914-.111,9.082-.278,8.66-.583,17.917-1.195,27.211-2.028A134.881,134.881,0,0,0,751.021,26.2c5.139-1.139,8.589-3.667,10.42-7.7a51.813,51.813,0,0,0,3.7-13.114l.176-.945a4.841,4.841,0,0,1,1.232-3.334h27.246a14.042,14.042,0,0,1,2.534,2.306A32.268,32.268,0,0,0,810.3,13.088a145.252,145.252,0,0,0,15.172,3.945l.352.083q2.429.542,4.858,1a146.54,146.54,0,0,1,19.29,5c9.047,3.251,14.749,7.057,18.41,12.308a38.285,38.285,0,0,1,6.512,29.312c-2.781,15.614-11.863,26.533-27.809,33.479-13.2,5.751-27.246,9.308-37.982,11.78-2.006.472-4.048.917-6.09,1.361a166.538,166.538,0,0,0-20.839,5.529c-12,4.168-19.4,11.725-21.93,22.366-1.232,5.112-1.232,10.308-1.232,15.281v2.778a47.5,47.5,0,0,0,2.887,15.476c5.21,15.337,16.826,27.673,35.624,37.73,10.032,5.334,20.945,9.585,31.54,13.67,2.534,1,5.1,2,7.709,3.028,9.751,3.862,20.17,8.28,29.815,13.947,4.471,2.556,9.012,5.557,11.969,9.752v52.067a3.722,3.722,0,0,1-1.584-.917c-.352-.222-.6-.472-.88-.639-7.85-5.446-14.116-9.974-19.607-14.253C845.607,278.7,836,269.448,824.874,258.14a231.424,231.424,0,0,0-26.26-23.311l-6.09-4.473c-7.357-5.39-14.961-11.03-21.9-16.976a101.692,101.692,0,0,1-18.8-21.838c-7.181-11.113-10.208-23.338-12.5-33.952l-.281-1.417c-1.162-5.473-2.323-11.113-5.069-16.392-2.5-4.779-7.04-7.418-12.743-7.418a21.006,21.006,0,0,0-3.45.306,33.615,33.615,0,0,0-8.8,2.834c-9.364,4.168-13.588,11.447-16.545,18-3.485,7.752-4.33,15.948-5.139,23.866l-.352,3.612a84.012,84.012,0,0,1-16.333,41.592A71.185,71.185,0,0,1,644.467,244.5c-9.082,4.418-19.255,6.557-31.083,6.557a124.781,124.781,0,0,1-14.855-.972c-10.736-1.306-17.742-6.112-20.769-14.281a49.9,49.9,0,0,1-2.57-13.864c-.282-4.112-.458-8.28-.6-12.419-.176-4.612-.317-9.391-.669-14.142a89.736,89.736,0,0,0-7.5-29.284,221.963,221.963,0,0,0-17.5-31.034c-7.322-11.2-16.3-18.865-27.527-23.422-5.808-2.334-10.6-3.945-15.031-3.917-5.949,0-10.842,2.778-16.263,9.363a266.1,266.1,0,0,1-26.26,27.589c-8.307,7.529-18.129,14.809-31.928,23.616-11.933,7.5-20.1,15-25.591,23.533-1.655,2.556-3.2,5.168-4.752,7.779-2.042,3.473-4.189,7.029-6.512,10.474-8.8,12.7-20.065,20.782-34.392,24.672-4.541,1.222-9.223,2.306-13.729,3.362-6.266,1.473-12.743,3-19.044,4.89-20.487,6.168-33.547,16.281-39.918,30.923-4.259,9.669-5.421,17.948-3.626,26.089,1.619,7.251,5.738,14.114,12.25,20.338a309.939,309.939,0,0,1,33.582,37.48,77.944,77.944,0,0,0,9.645,11.058C346.453,375.054,353.7,378,361.976,378h.915c12.039-.361,22.881-4.557,34.145-13.169,8.66-6.529,14.116-15.087,19.361-23.394l.422-.639a110.206,110.206,0,0,1,28.654-30.59c11.3-8.057,22.564-16.031,33.9-24.033l19.044-13.5c12.848-9.141,25.979-13.586,40.129-13.586,1.056,0,2.147.028,3.309.083,9.68.472,16.58,2.917,21.825,7.668a51.852,51.852,0,0,1,9.082,11.391c1.479,2.362,2.851,4.7,4.259,7.029,4.717,7.974,9.68,16.2,15.841,23.672,6.829,8.252,13.764,13.864,21.86,17.67a47.972,47.972,0,0,0,20.769,5.057,41.861,41.861,0,0,0,13.236-2.195A98.476,98.476,0,0,0,660.8,324.6c2.394-1.084,4.717-2.278,7.04-3.445,5.773-2.834,11.757-5.779,17.882-8.2a73.99,73.99,0,0,1,39.848-4.39c17.882,2.917,30.519,13.753,33.793,28.978,1.232,5.7,1.267,11.919.176,19.587-1.8,12.808-11.828,22.033-26.894,24.7-8.307,1.473-16.9,1.75-25.2,1.973-3.8.111-7.639.25-11.44.472-2.112.111-4.259.139-6.371.139a82.559,82.559,0,0,0-10.1.445c-15.489,1.778-26.964,7.2-35.061,16.531a60.867,60.867,0,0,0-7.885,11.725,5.126,5.126,0,0,1-2.429,2.445h-37a1.575,1.575,0,0,1-.7-1.25,18.581,18.581,0,0,0-.387-3.445,24.734,24.734,0,0,1-.352-3.529c.141-8.474.528-18.393,2.675-28.145,1.373-6.057.035-11.891-4.048-17.837a165.685,165.685,0,0,1-11.792-20.365c-1.443-2.862-2.851-5.779-4.259-8.641-3.943-8.029-7.956-16.337-12.884-24.144-4.893-7.779-9.5-13.225-14.89-17.67a33.6,33.6,0,0,0-22.247-8.141c-.493,0-.986,0-1.443.028a52.216,52.216,0,0,0-21.332,5.835c-9.751,5.057-19.185,10.808-28.231,16.365l-5.914,3.64a133.711,133.711,0,0,0-24.219,18.56c-8.308,8.141-13.729,17.782-18.375,26.978-7.287,14.336-17.777,27.506-32.068,40.175-5.6,4.946-11.616,11.169-14.151,19.449a3.613,3.613,0,0,1-1.584,2.139H338.814l-.141-.139a6.713,6.713,0,0,1-1.8-1.834c-3.239-6.863-8.941-12.7-17.284-17.837l-3.45-2.112a232.282,232.282,0,0,1-21.79-14.475,198.22,198.22,0,0,1-28.2-27.478,101.44,101.44,0,0,0-26.683-22.671,110.062,110.062,0,0,1-14.4-10.419c-8.589-7.057-16.509-14.809-24.183-22.283-2.464-2.417-4.963-4.834-7.463-7.252-7.181-6.918-12.32-13.114-16.157-19.5-9.469-15.5-11.581-32.34-12.391-46.76-.634-9.7.845-20,4.647-32.4,2.394-7.863,4.682-16.309,4.295-25.144a61.753,61.753,0,0,0-13.165-36.313c-8.1-10.474-20.276-15.781-36.117-15.781-.774,0-1.584.028-2.358.028a87.2,87.2,0,0,0-30.836,7.029C82.971,123.7,75.4,127.946,66.6,133.308c-17.636,10.752-37.6,17.7-61.074,21.2a8.435,8.435,0,0,0-1.091.194,11.725,11.725,0,0,1-1.866.25,2.352,2.352,0,0,1-1.162-.278V125.723a2.119,2.119,0,0,1,1.338-.472h0a49.786,49.786,0,0,0,5.386-.361c1.373-.139,2.675-.25,4.013-.306a119.92,119.92,0,0,0,21.9-2.806c8.906-1.973,17.284-5.168,25.415-8.252,2.675-.972,5.28-1.973,7.92-2.945C86.068,103.746,103.7,100.44,121.3,100.44a140.212,140.212,0,0,1,14.89.806c15.348,1.639,27.316,8.2,35.589,19.615,6.935,9.474,11.9,20.81,15.665,35.591,2.323,8.946,2.781,16.92,1.478,24.422a135.6,135.6,0,0,1-3.907,15.309c-.563,1.834-1.091,3.612-1.619,5.473a76.114,76.114,0,0,0-2.358,33.7c3.731,22.338,17.284,39.064,40.235,49.705,6.09,2.806,11.476,4.168,16.509,4.168,7.744,0,14.5-3.223,20.663-9.835A158.362,158.362,0,0,0,270,265.225c1.338-1.75,2.64-3.5,4.013-5.279,9.645-12.169,22.916-21.588,39.425-27.923,6.759-2.639,13.8-4.834,20.628-6.974,4.083-1.278,8.2-2.556,12.25-3.917,19.22-6.613,30.027-17.643,33.054-33.7a111.943,111.943,0,0,0,1.866-23.116,24.906,24.906,0,0,1,1.232-8.585c1.76-5.473,5.843-8.613,12.532-9.5a59.515,59.515,0,0,1,8.695-.472h4.224c11.652-.056,22.388-4.056,30.238-11.28,8.589-7.918,12.391-18.56,10.349-29.2-2.394-12.642-8.519-24.45-13.9-34.841-1.021-1.917-2.042-3.834-3.063-5.7-3.555-6.613-7.216-13.392-9.856-20.477-3.7-10.224-2.64-18.309,3.379-25.422,3.52-4.2,8.1-7.5,12.5-10.474,1.2-.806,2.358-1.695,3.485-2.556,2.535-2,4.963-3.89,8.167-4.7M448.994,0c-5.21,1.25-8.343,4.89-12.391,7.5-4.682,3.2-9.152,6.5-12.708,10.7-6.97,8.28-6.9,17.115-3.555,26.339,3.414,9.169,8.413,17.643,12.954,26.311,5.808,11.225,11.511,22.394,13.834,34.591,3.907,20.5-14.644,39.119-39.214,39.2H403.69a64.286,64.286,0,0,0-8.941.472c-7.287,1-11.757,4.445-13.658,10.363a26.068,26.068,0,0,0-1.267,8.835,109.491,109.491,0,0,1-1.866,22.949c-3.062,16.281-14.433,26.728-32.209,32.84-10.877,3.7-22.177,6.7-32.913,10.891-16.474,6.335-29.956,15.614-40.024,28.395-5.069,6.474-9.68,13.2-15.489,19.337-6.055,6.529-12.5,9.391-19.537,9.391-4.963,0-10.173-1.445-15.77-4-22.811-10.558-35.941-27.033-39.566-48.9a75.289,75.289,0,0,1,2.323-33.34c1.971-6.89,4.33-13.809,5.562-20.866,1.443-8.335.6-16.642-1.514-24.783-3.2-12.586-7.709-24.866-15.805-35.924-8.378-11.5-20.558-18.448-36.609-20.143a138.979,138.979,0,0,0-15.1-.834c-18.8,0-36.926,3.834-54.527,10.224-10.912,3.973-21.543,8.641-33.124,11.141a117.159,117.159,0,0,1-21.578,2.778c-3.027.083-6.019.639-9.082.639H2.747A3.924,3.924,0,0,0,0,125.306v29.9a4.01,4.01,0,0,0,2.57.861,29.785,29.785,0,0,0,3.239-.445c22.388-3.39,43.122-10.141,61.638-21.421a181.434,181.434,0,0,1,24.535-13,85.435,85.435,0,0,1,30.273-6.863c.739-.056,1.549-.056,2.288-.056,14.362,0,26.577,4.445,34.92,15.253a60.461,60.461,0,0,1,12.954,35.758c.387,8.557-1.76,16.726-4.259,24.866-3.274,10.7-5.421,21.588-4.682,32.674.915,16.309,3.485,32.424,12.532,47.2a97.6,97.6,0,0,0,16.333,19.754c10.42,9.974,20.382,20.227,31.681,29.562a111.207,111.207,0,0,0,14.609,10.558,99.871,99.871,0,0,1,26.331,22.421,205.618,205.618,0,0,0,28.408,27.645c7.92,6.14,16.685,11.308,25.38,16.642,7.428,4.557,13.376,10.113,16.826,17.365a9.765,9.765,0,0,0,2.64,2.7h43.192a4.8,4.8,0,0,0,2.5-2.973c2.323-7.529,7.674-13.5,13.834-19,13.482-11.975,24.535-25.2,32.315-40.481,4.787-9.446,10.068-18.782,18.164-26.7a132.36,132.36,0,0,1,23.972-18.393c11.229-6.835,22.247-13.836,34.11-19.949a50.437,50.437,0,0,1,20.593-5.64c.458-.028.915-.028,1.373-.028a32.093,32.093,0,0,1,21.226,7.779A71.195,71.195,0,0,1,564.1,308.679c6.688,10.558,11.581,21.782,17.143,32.729a164.834,164.834,0,0,0,11.863,20.477c3.7,5.362,5.28,10.947,3.907,17.143-2.077,9.308-2.57,18.81-2.675,28.284-.07,2.389.669,4.7.669,7a3.153,3.153,0,0,0,1.514,2.362h37.982a6.051,6.051,0,0,0,3.344-3.112,63.351,63.351,0,0,1,7.779-11.53c8.448-9.78,20.241-14.475,34.075-16.059,5.456-.695,10.948-.278,16.4-.583,12.285-.722,24.641-.333,36.821-2.473,15.207-2.667,26.155-12.03,27.985-25.644a55.562,55.562,0,0,0-.141-19.893c-3.344-15.7-16.369-26.867-34.92-29.9a75.936,75.936,0,0,0-12.426-1.028,77.687,77.687,0,0,0-28.337,5.473c-8.66,3.445-16.721,7.779-24.958,11.725a104.544,104.544,0,0,1-11.969,4.779,39.436,39.436,0,0,1-12.672,2.084,46.575,46.575,0,0,1-20.065-4.862c-8.941-4.223-15.594-10.336-21.367-17.309-7.92-9.613-13.658-20.254-19.994-30.59a53.193,53.193,0,0,0-9.364-11.641c-6.2-5.723-14.081-7.641-22.74-8.057-1.2-.056-2.288-.083-3.414-.083-15.735,0-29.182,5.418-41.08,13.892-17.6,12.5-35.342,24.95-52.908,37.536a111.163,111.163,0,0,0-29.006,30.9c-5.421,8.53-10.772,17.17-19.466,23.727-9.434,7.2-20.065,12.475-33.195,12.864h-.915c-8.589,0-15.418-3.473-21.05-8.7a77.191,77.191,0,0,1-9.54-10.947A310.566,310.566,0,0,0,297.7,319.653c-5.984-5.723-10.279-12.28-11.968-19.838-1.936-8.78-.07-17.254,3.591-25.533,6.864-15.726,21.015-24.811,39.109-30.256,10.772-3.223,21.9-5.307,32.7-8.224,15.946-4.334,26.929-13.336,35.166-25.228,4.083-5.946,7.392-12.225,11.264-18.254,6.125-9.5,15.1-16.809,25.275-23.172,11.405-7.279,22.423-14.92,32.1-23.783a270.7,270.7,0,0,0,26.331-27.673c5.28-6.39,9.786-8.891,15.1-8.891,4.083,0,8.624,1.473,14.4,3.834,12.215,4.946,20.522,13.142,26.894,22.977a216.828,216.828,0,0,1,17.425,30.84,88.578,88.578,0,0,1,7.427,29.006c.634,8.835.7,17.7,1.267,26.533a49.027,49.027,0,0,0,2.64,14.142c3.344,9,11.335,13.753,21.9,15.031a126.158,126.158,0,0,0,15.066,1c10.983,0,21.719-1.806,31.822-6.724a71.253,71.253,0,0,0,26.612-22.31,84.908,84.908,0,0,0,16.509-42.064c1.021-9.169,1.514-18.448,5.456-27.172,3.2-7.168,7.463-13.67,15.911-17.42a31.613,31.613,0,0,1,8.378-2.723,21.336,21.336,0,0,1,3.168-.25,12.275,12.275,0,0,1,11.44,6.7c2.886,5.612,4.013,11.586,5.28,17.559,2.534,11.808,5.7,23.533,12.637,34.285a104,104,0,0,0,18.974,22.088c8.871,7.641,18.586,14.448,28.055,21.5a230.8,230.8,0,0,1,26.119,23.172c9.962,10.169,20.276,20.2,31.752,29.145,6.336,4.945,12.989,9.7,19.678,14.336,1.056.639,2.006,1.806,3.45,1.806a3.146,3.146,0,0,0,1.338-.306v-53.15c-3.062-4.445-7.674-7.557-12.532-10.391-9.434-5.529-19.642-9.891-30.062-14.031-13.2-5.251-26.683-10.03-39.038-16.615-16.756-8.946-29.5-20.643-35.061-37.091a46.272,46.272,0,0,1-2.887-15.2c.035-5.973-.211-11.919,1.232-17.865,2.5-10.419,9.54-17.5,21.086-21.56,8.66-3.056,17.812-4.751,26.823-6.835,13.13-3,26.049-6.529,38.264-11.864C864.511,91.938,873.522,80.3,876.338,64.9A39.126,39.126,0,0,0,869.615,34.9c-4.4-6.362-11.3-10.03-19.044-12.781-7.85-2.862-16.122-4.251-24.359-6.057a138.406,138.406,0,0,1-15.383-4,30.69,30.69,0,0,1-13.271-9.169A14.486,14.486,0,0,0,794.284,0H765.947c-1.936,1.389-1.866,3.362-2.218,5.251A51.074,51.074,0,0,1,760.1,18.117c-1.725,3.806-4.893,6.029-9.5,7.029a140.151,140.151,0,0,1-17.742,2.306c-9.047.778-18.129,1.389-27.211,2-2.992.167-5.984.278-8.941.278-14.609,0-28.478-2.584-40.657-10.752A53.175,53.175,0,0,1,641.088,3.142,6.758,6.758,0,0,0,637.744,0H608.069c-1.478,1.028-.95,2.223-.352,3.473a52.84,52.84,0,0,0,12.109,17.087c13.975,12.53,30.414,21.7,50.408,25.894a81.612,81.612,0,0,0,15,1.528c1.091,0,2.147.028,3.274.028,4.013,0,7.991-.083,12-.083a124.4,124.4,0,0,1,13.658.583c6.653.75,12.848,1.945,17.46,6.585a14.541,14.541,0,0,1,3.943,5.835c4.154,15.142,1.338,32.813-17.741,43.37-7.04,3.862-14.151,7.529-20.769,11.919-14.644,9.558-23.374,22.144-26.647,37.452a118.317,118.317,0,0,0-2.112,20.754c-.282,9.391-1.021,18.81-4.858,27.756-4.154,9.752-10.314,18.337-20.417,24.45a38.885,38.885,0,0,1-20.382,5.89,42.9,42.9,0,0,1-6.724-.556c-9.187-1.611-15.207-6.557-18.692-13.558-2.746-5.5-3.767-11.336-4.189-17.226a336.61,336.61,0,0,0-8.061-52.094c-1.9-8.224-2.711-16.587-3.626-24.978-1.514-13.058-6.266-24.978-16.862-35.063-5.139-4.834-11.053-9.057-16.545-13.67a46.987,46.987,0,0,1-15.031-22.366c-2.394-7.335-4.295-14.7-6.864-22-3.379-9.724-8.1-19-12.426-28.478A5.312,5.312,0,0,0,510.878,0Z" transform="translate(-0.001 -0.002)" fill="#16181c"/>
      </g>
      <g id="Group_71537" data-name="Group 71537" transform="translate(0 0)">
        <g id="Group_71533" data-name="Group 71533" transform="translate(0 251.081)">
          <path id="Path_14244" data-name="Path 14244" d="M3.135,10.15a3.636,3.636,0,0,1,.774.056c8.308.834,14.925,1.667,20.945,2.556,24.289,3.723,44.213,13.2,59.279,28.256a86.019,86.019,0,0,1,10.56,12.614c8.906,13.225,11.581,27.617,13.13,41.175l.07.778c1.021,8.752,2.006,17.754,5.175,26.395,3.626,10.085,8.976,17.115,16.756,22.116,5.7,3.64,11.792,6.807,17.741,9.835,2.253,1.139,4.506,2.306,6.723,3.473a70.384,70.384,0,0,1,18.41,14c1.056,1.056,1.373,1.584,1.126,2.112H140.737a60.351,60.351,0,0,0-6.16-1.222c-1.408-.222-2.816-.445-4.189-.722a33.745,33.745,0,0,0-7.568-.889,31.749,31.749,0,0,0-13.024,2.834c-35.765,0-71.67,0-107.47.028a7.138,7.138,0,0,1-.915-.056v-.778c.106-4,.07-7.974.035-11.975v-4.7a3.241,3.241,0,0,1,2.112-.583,7.971,7.971,0,0,1,1.619.139,69.233,69.233,0,0,0,8.237.333h5.069l5.139.028c6.3,0,13.024-.083,19.818-.556,8.73-.695,18.868-1.611,28.478-4.223,8.132-2.25,13.341-7,15.418-14.114,2.288-7.863,2.851-15.67,3.274-24.311a165.615,165.615,0,0,0,.317-24.005c-1.126-13.2-4.541-23.561-10.7-32.562C71.32,43.3,59.351,34.906,43.475,30.46c-8.695-2.389-17.213-2.7-23.69-2.7-3.767,0-7.533.111-11.335.25L6.3,28.071l-1.2.083q-.845.083-1.584.083a3.236,3.236,0,0,1-2.077-.528V10.65a2.5,2.5,0,0,1,1.69-.5m0-1.111a4.071,4.071,0,0,0-3.1,1.195v17.92a4.687,4.687,0,0,0,3.485,1.222c.915,0,1.866-.139,2.851-.194,4.471-.139,8.976-.306,13.412-.306,7.779,0,15.559.5,23.233,2.639,16.017,4.473,27.668,13.142,35.976,25.228,6.829,9.891,9.575,20.727,10.525,32.09A163.757,163.757,0,0,1,89.2,112.7c-.422,8.057-.915,16.17-3.239,24.116-1.971,6.751-6.723,11.169-14.5,13.308-9.117,2.473-18.622,3.417-28.161,4.168-6.512.472-13.095.556-19.678.556-3.415,0-6.794-.028-10.208-.028a59.954,59.954,0,0,1-8.026-.361c-.6-.056-1.232-.111-1.83-.111a4.552,4.552,0,0,0-3.52,1.278c0,5.7.106,11.391-.035,17.059-.035,1.611.422,1.973,2.323,1.973q53.911-.042,107.857-.028a29.819,29.819,0,0,1,12.637-2.834,31.662,31.662,0,0,1,7.181.833c3.52.75,7.111,1.028,10.49,2h34.145c1.549-1.556.211-2.834-.81-3.89a70.847,70.847,0,0,0-18.762-14.253c-8.132-4.334-16.615-8.28-24.324-13.253-8.589-5.529-13.271-13.114-16.333-21.532-3.2-8.835-4.154-17.92-5.175-27.006-1.654-14.5-4.576-28.673-13.271-41.592A89.459,89.459,0,0,0,85.224,40.323C69.419,24.542,49.143,15.346,25.136,11.678,18.166,10.65,11.125,9.817,4.12,9.095a6.075,6.075,0,0,0-.986-.056Z" transform="translate(0 -9.039)" fill="#16181c"/>
        </g>
        <g id="Group_71534" data-name="Group 71534" transform="translate(186.886)">
          <path id="Path_14245" data-name="Path 14245" d="M6.893,1.113H19.777c1.091.528,1.514,1.445,1.9,3.056C23.79,12.06,27.662,19.9,34.315,29.619c3.027,4.418,6.125,8.807,9.188,13.2C48.36,49.735,53.394,56.9,58.181,64.043,63.638,72.3,69.8,80.964,79.056,87.687c11.124,8.029,22.071,11.975,33.547,11.975,1.056,0,2.077-.028,3.133-.083,10.56-.611,19.114-4.279,25.521-11.03,8.2-8.557,10.983-18.81,12.673-27.728,1.267-6.974,1.866-14.086,2.429-20.977l.282-3.584c.88-10.447,2.816-20.977,4.647-31.146l.352-1.806a3.586,3.586,0,0,1,1.408-2.195H193.6a57.015,57.015,0,0,1-6.794,15.976A132.039,132.039,0,0,0,170.65,57.042l-.563,2.223c-2.253,9.585-4.647,19.5-8.695,28.812-2.182,5.279-4.787,10.808-9.575,15.031-7.744,6.668-17.354,9.919-29.464,9.919a75.987,75.987,0,0,1-8.836-.528C92.679,110.109,75.043,101,59.625,84.715c-6.9-7.279-12.778-15.42-18.41-23.227l-.7-1c-2.077-2.806-4.189-5.612-6.266-8.391-6.829-9.057-13.9-18.448-19.15-28.478-4.611-8.7-7.146-15.7-8.2-22.5M5.309,0C6.4,8.476,9.744,16.394,13.793,24.035c6.9,13.142,16.58,24.866,25.451,37.008,6.019,8.307,12,16.67,19.22,24.311,14.257,15.031,31.928,25.617,54.844,28.256a77.4,77.4,0,0,0,9.047.556c11.264,0,21.825-2.806,30.484-10.336,4.928-4.306,7.568-9.808,9.892-15.364,4.4-10.141,6.794-20.754,9.293-31.229a131.554,131.554,0,0,1,16.052-39.647A57.5,57.5,0,0,0,195.291,0H162.448a4.989,4.989,0,0,0-2.218,3.14c-2.007,10.975-4.048,21.921-5,33.035-.669,8.224-1.2,16.392-2.71,24.505-1.83,9.808-4.787,19.254-12.391,27.228-6.266,6.557-14.609,9.974-24.5,10.53-1.021.083-2.006.111-3.027.111-12.567,0-23.127-4.807-32.561-11.669-8.941-6.474-15-14.864-20.628-23.366C51.669,51.93,43.5,40.622,35.547,29.092c-5.386-7.918-10.068-16.115-12.5-25.116C22.663,2.336,22.135.752,20.094,0Z" transform="translate(-5.309 -0.002)" fill="#16181c"/>
        </g>
        <g id="Group_71535" data-name="Group 71535" transform="translate(0.037)">
          <path id="Path_14246" data-name="Path 14246" d="M56.429,1.113H97.4a64.8,64.8,0,0,1-4.435,10.7c-7.216,12.725-18.516,23.422-33.547,31.7A59.717,59.717,0,0,1,30.1,51.18a64.283,64.283,0,0,1-8.871-.639L5.387,48.4l-3.978-.5V10.81a6.4,6.4,0,0,1,3.626-.889c.88,0,1.76.111,2.675.167a18.039,18.039,0,0,0,2.077.167l3.52.167c4.013.222,8.2.445,12.32.445,2.288,0,4.4-.056,6.371-.194,8.765-.639,15.665-3.112,21.156-7.641a13.873,13.873,0,0,1,3.274-1.917M56.112,0A15.3,15.3,0,0,0,52.1,2.28C46.5,6.92,39.6,9,31.893,9.56c-2.077.139-4.189.194-6.266.194-5.245,0-10.49-.361-15.77-.583-1.584-.083-3.239-.333-4.823-.333A7.827,7.827,0,0,0,0,10.31V48.846c6.97.917,13.975,1.834,21.015,2.806a67.64,67.64,0,0,0,9.082.611,61.839,61.839,0,0,0,30.168-7.807c14.644-8.141,26.3-18.671,33.969-32.2A72.08,72.08,0,0,0,99.234,0Z" transform="translate(-0.001 -0.002)" fill="#16181c"/>
        </g>
        <g id="Group_71536" data-name="Group 71536" transform="translate(774.361 342.323)">
          <path id="Path_14247" data-name="Path 14247" d="M126.229,15.3V51.081a7.128,7.128,0,0,0-.739,1.306,6.6,6.6,0,0,1-1.584,2.056,113.761,113.761,0,0,1-15.77,9.446c-7.815,3.667-16.439,6.057-24.711,8.363-2.57.722-5.139,1.445-7.744,2.223-6.864,1.973-12.989,3.918-18.093,7.7a22.66,22.66,0,0,1-5.667,3.39H23.441c.739-10.447,8.484-19,20.487-22.394,4.611-1.306,9.293-2.473,13.9-3.667,5-1.278,9.962-2.556,14.925-3.945,11.722-3.362,21.719-8.335,29.6-14.753a115.992,115.992,0,0,0,13.06-13.225l2.394-2.612c1.126-1.306,2.218-2.612,3.344-3.945a64.385,64.385,0,0,1,5.069-5.723m1.408-2.973c-4.365,3.556-7.357,7.974-10.948,12-4.893,5.39-9.5,10.919-15.313,15.67-8.272,6.724-18.2,11.364-29.111,14.5-9.575,2.695-19.255,4.973-28.83,7.613C30.376,65.834,22.244,75.336,22,86.672H52.236a22.867,22.867,0,0,0,6.3-3.7c5.139-3.751,11.37-5.668,17.636-7.474,11.088-3.278,22.353-5.779,32.7-10.669,5.808-2.667,10.807-6.085,15.911-9.558,1.514-1,1.866-2.612,2.851-3.918V12.323Z" transform="translate(-21.998 -12.323)" fill="#16181c"/>
        </g>
      </g>
      <g id="Group_71538" data-name="Group 71538" transform="translate(510.914 0)">
        <path id="Path_14248" data-name="Path 14248" d="M16.485,1.113H45.632c1.408.695,2.006,1.973,2.64,3.417l.422.889A50.524,50.524,0,0,0,61.86,21.479c1.8,1.473,3.907,3.056,6.759,3.056a9.142,9.142,0,0,0,2.077-.278c3.485-1,4.154-3.584,4.647-5.7l.176-.667a33.062,33.062,0,0,0,.669-9.252q-.106-2.334,0-4.668V3.419a3.3,3.3,0,0,1,.669-2.306h33.758a45.83,45.83,0,0,0,8.8,14.725c6.477,7.835,15.348,14.475,27.809,20.893,12.074,6.251,23.55,9.724,35.131,10.641,4.576.389,9.012.445,12.426.445,1.866,0,3.767,0,5.667-.056h9.4A65.34,65.34,0,0,1,225.3,49.54c8.1,2.056,12.989,6.529,14.573,13.253a41.447,41.447,0,0,1,.669,14.753c-.95,10.669-6.371,18.948-16.615,25.311-3.943,2.473-8.131,4.807-12.18,7.085l-6.583,3.751c-16.228,9.308-26.507,22.227-30.59,38.425-1.83,7.363-2.182,14.975-2.5,22.255-.141,2.584-.282,5.2-.422,7.752-.88,11.947-3.8,21.282-9.258,29.367-8.483,12.5-18.762,19.226-32.456,21.06a30.455,30.455,0,0,1-4.224.278c-11.511,0-21.754-6.085-25.486-15.17-3.027-7.39-3.767-15.364-4.435-22.366l-.352-4.445A178.562,178.562,0,0,0,92.7,169.9c-3.1-15.087-6.583-32.646-8.66-49.983-1.584-13.169-8.2-24.616-19.748-34.091-1.83-1.528-3.731-3.056-5.562-4.557-3.168-2.556-6.3-5.112-9.364-7.752a37.306,37.306,0,0,1-9.821-12.642c-3.168-6.474-5.069-13.364-6.9-20.032C29.58,29.731,24.722,19.089,20.005,8.837l-3.52-7.724M14.514,0C20.5,13.5,27.362,26.813,31.27,40.983c1.866,6.835,3.731,13.725,6.9,20.282A39.288,39.288,0,0,0,48.342,74.3c4.858,4.168,10,8.224,14.925,12.308,11.159,9.113,17.812,20.421,19.361,33.424,2.007,16.809,5.28,33.424,8.66,50.038,1.83,8.363,2.358,16.865,3.1,25.311.739,7.641,1.514,15.281,4.471,22.644,3.978,9.641,14.925,15.92,26.859,15.92a35.512,35.512,0,0,0,4.506-.306c15.876-2.139,25.873-10.5,33.406-21.616,6.266-9.2,8.66-19.282,9.434-29.812.669-10,.458-20,2.922-29.9,4.013-16,13.975-28.534,29.992-37.73,6.266-3.612,12.743-7.029,18.833-10.863C235.191,97.245,240.964,88.66,242.02,77.6a45.844,45.844,0,0,0-.739-15.031c-1.76-7.39-7.251-11.975-15.559-14.114a67.016,67.016,0,0,0-15.876-1.778c-1.267-.056-2.5-.056-3.731-.056-3.767,0-7.568.083-11.335.083-4.119,0-8.2-.083-12.285-.417-12.532-1-23.9-5-34.462-10.474-10.6-5.418-20.276-11.947-27.457-20.56C116.668,10.588,113.43,5.587,111.7,0H76.328c-1.619.972-1.478,2.473-1.549,3.918-.246,4.612.528,9.2-.634,13.781-.6,2.167-.845,4.64-3.872,5.473a6.268,6.268,0,0,1-1.654.25c-2.323,0-4.119-1.361-5.7-2.7A49.7,49.7,0,0,1,50,5.059C49.082,3.142,48.448,1.03,46.019,0Z" transform="translate(-14.514 -0.002)" fill="#16181c"/>
      </g>
      <g id="Group_71539" data-name="Group 71539" transform="translate(381.444 282.227)">
        <path id="Path_14249" data-name="Path 14249" d="M157.978,11.271a30.279,30.279,0,0,1,15.946,4.251,48.644,48.644,0,0,1,12.708,11.169c7.991,9.641,13.412,20.643,18.622,31.284l1.338,2.7.458,1c4.752,9.53,9.645,19.421,15.946,28.562,3.731,5.307,4.893,10.78,3.591,16.7a133.465,133.465,0,0,0-2.675,29.034c.07,1.222.211,2.417.317,3.667a27.838,27.838,0,0,1,.352,3.862H183.886a11.278,11.278,0,0,1-3.45-3.584,17.225,17.225,0,0,0-1.162-1.556c-4.083-5.168-8.167-10.391-10.736-16.115-6.723-15.309-8.976-32.285-6.9-51.761l.282-2.667c.6-5.084,1.126-10.391.035-15.67-1.514-7.807-8.8-13.086-18.094-13.086-.88,0-1.76.056-2.675.139-10.208,1.111-20.417,4.223-32.068,9.835A72.976,72.976,0,0,0,92.186,60.365,67.811,67.811,0,0,0,74.55,86.871a484.68,484.68,0,0,0-16.545,53.261l-.106.445c-.352,1.5-.6,2.389-1.69,2.917H12.6a34.8,34.8,0,0,1,7.216-13.614,163.062,163.062,0,0,1,11.9-11.836A123.631,123.631,0,0,0,50.332,96.956,197.231,197.231,0,0,0,60.47,80.008c2.042-3.7,4.119-7.529,6.407-11.2,5.562-9.085,13.341-17.17,23.867-24.755,13.271-9.53,28.02-17.976,42-25.672a55.426,55.426,0,0,1,17.143-6.335,46.556,46.556,0,0,1,8.1-.778m0-1.111a46.052,46.052,0,0,0-8.413.834,55.386,55.386,0,0,0-17.636,6.474c-14.468,8-28.9,16.281-42.1,25.783-9.821,7.029-18.2,15.2-24.219,25.061C59.907,77.674,55.331,87.4,49.1,96.456a122.225,122.225,0,0,1-18.481,20.866,162.952,162.952,0,0,0-11.968,11.919,36.44,36.44,0,0,0-7.815,15.364H56.563c2.182-.834,2.394-2.584,2.816-4.251A481.674,481.674,0,0,1,75.923,87.176,65.667,65.667,0,0,1,93.278,61.088a70.8,70.8,0,0,1,16.545-11.113c9.856-4.7,20.135-8.418,31.54-9.669.845-.083,1.69-.139,2.5-.139,8.448,0,15.277,4.751,16.721,12.169,1.232,6.057.282,12.058-.352,18.059-1.9,17.865-.422,35.369,6.97,52.233,2.64,5.89,6.794,11.141,10.912,16.337,1.584,1.945,2.675,4.306,5.315,5.64h42.523c.211-2.917-.528-5.807-.6-8.641a130.77,130.77,0,0,1,2.64-28.867c1.373-6.224.035-11.975-3.766-17.42-6.442-9.363-11.405-19.421-16.333-29.423-5.808-11.78-11.37-23.644-20.1-34.2a50.5,50.5,0,0,0-13.06-11.447,32.016,32.016,0,0,0-16.756-4.445Z" transform="translate(-10.836 -10.16)" fill="#16181c"/>
      </g>
      <g id="Group_71540" data-name="Group 71540" transform="translate(110.182 412.505)">
        <path id="Path_14250" data-name="Path 14250" d="M15.943,14.849V15.96a36.563,36.563,0,0,1,11.9,1.945H6.052a7.34,7.34,0,0,1,3.2-1.417,46.348,46.348,0,0,1,6.688-.528V14.849m0,0a42.7,42.7,0,0,0-6.97.556A9.67,9.67,0,0,0,3.13,19.017H33.438a37.986,37.986,0,0,0-17.5-4.168Z" transform="translate(-3.13 -14.849)" fill="#16181c"/>
      </g>
      <g id="Group_71541" data-name="Group 71541" transform="translate(611.074 193.93)">
        <path id="Path_14252" data-name="Path 14252" d="M123.444,8.121a12.539,12.539,0,0,1,4.611,1.056c4.963,2,8.448,5.557,11.828,9l1.76,1.723c8.061,8.029,16.721,16.559,26.19,24.672,2.851,2.389,5.667,4.751,8.554,7.113,11.018,9.2,22.458,18.671,32.139,29.228,5.245,5.723,10.772,11.391,16.122,16.865,7.5,7.668,15.277,15.587,22.282,23.783,7.427,8.7,10.173,15.976,8.941,23.616-2.675,16.67-15.594,29.173-33.582,32.646a39.041,39.041,0,0,1-7.322.722c-6.336,0-17.565-1.75-22.036-13.5-1.655-4.39-2.992-8.919-4.295-13.308-.669-2.278-1.373-4.557-2.077-6.835-5.069-15.92-15.207-26.533-30.872-32.4-12.109-4.473-25.169-6.64-39.883-6.64-5.6,0-11.546.333-17.741.945-10.772,1.111-20.734,4.64-30.379,8.03-6.477,2.306-13.552,4.473-21.086,4.668-11.933,0-24.183-7.946-27.316-17.726-1.654-5.14.6-10.058,5.984-13.142a56.506,56.506,0,0,1,13.517-5.473,89.381,89.381,0,0,0,45.2-29.034c7.04-8.363,13.9-17.365,21.543-28.367l1.478-2.139c3.238-4.751,6.336-9.252,10.807-13.058,2.007-1.695,3.7-2.445,5.632-2.445m0-1.139a10.021,10.021,0,0,0-6.653,2.834c-5.315,4.473-8.765,10-12.5,15.42-6.723,9.641-13.764,19.115-21.473,28.256A88.177,88.177,0,0,1,38.327,82.109a58.88,58.88,0,0,0-13.9,5.64c-5.773,3.334-8.308,8.641-6.477,14.281C21.22,112.282,34.1,120.617,46.6,120.617c7.674-.194,14.749-2.306,21.684-4.779C78,112.421,87.75,109,98.275,107.92a169.483,169.483,0,0,1,17.53-.945c13.412,0,26.612,1.834,39.285,6.529,16.333,6.14,25.556,17.42,30.1,31.673,2.147,6.724,3.837,13.475,6.407,20.2,3.837,10.141,13.271,14.281,23.374,14.281a39.551,39.551,0,0,0,7.639-.75c20.241-3.918,32.1-17.921,34.638-33.59,1.549-9.28-2.992-17.17-9.152-24.366-12.039-14.086-25.838-26.95-38.44-40.7-12.18-13.281-26.823-24.644-40.8-36.424-9.188-7.891-17.706-16.2-26.119-24.616-4.118-4.084-7.955-8.585-14.045-11.03a14.652,14.652,0,0,0-5.245-1.195Z" transform="translate(-17.359 -6.982)" fill="#16181c"/>
      </g>
      <g id="Group_71542" data-name="Group 71542" transform="translate(427.17 310.9)">
        <path id="Path_14253" data-name="Path 14253" d="M100.49,12.3a16.407,16.407,0,0,1,10.032,3.223c6.442,4.862,6.653,11.169,6.231,18.309-.141,3.028-.458,6.085-.739,9.085-.352,3.584-.739,7.252-.915,10.891-.317,7.474.774,14.864,1.936,21.755,2.077,12.058,6.3,22.06,12.849,30.507.634.834,1.3,1.584,1.936,2.362a38.89,38.89,0,0,1,5.245,7.418H14C16.817,102.6,21.147,89.4,25.335,76.595l2.323-7.168c4.858-14.948,11.511-30.284,27.492-41.12C68.809,18.971,83,13.748,98.554,12.387c.6-.056,1.267-.083,1.936-.083m0-1.111c-.7,0-1.408.028-2.077.083a91.518,91.518,0,0,0-44.178,16.17c-15.841,10.78-22.775,25.839-27.95,41.7-5,15.5-10.384,30.951-13.764,46.76a4.269,4.269,0,0,1-.387,1.056H139c-1.619-4.306-5-7.779-7.885-11.447C124,96.321,120.273,86.125,118.443,75.4a101.28,101.28,0,0,1-1.936-21.532c.317-6.668,1.267-13.281,1.69-19.976.352-6.974.352-13.836-6.723-19.2a17.891,17.891,0,0,0-10.983-3.5Z" transform="translate(-12.135 -11.192)" fill="#16181c"/>
      </g>
      <g id="Group_71543" data-name="Group 71543" transform="translate(776.331 121.943)">
        <path id="Path_14254" data-name="Path 14254" d="M83.693,5.475a141.346,141.346,0,0,1,16.826,1A95.508,95.508,0,0,1,116.325,10.2c2.6.75,5.28,1.528,7.991,2.223V76.879c-3.661.695-7.251,1.473-10.877,2.167A145.7,145.7,0,0,1,84.89,82.1a105.477,105.477,0,0,1-23.2-2.5C44.76,75.8,25.681,62.237,23.675,44.594c-1.584-14,5.773-26.089,19.255-31.535A106.233,106.233,0,0,1,83.693,5.475m0-1.084a108.326,108.326,0,0,0-41.4,7.668c-14.644,5.946-21.578,19.032-20.03,32.646,1.971,17.281,20.1,31.673,39.038,35.98A108.356,108.356,0,0,0,84.89,83.241a147.822,147.822,0,0,0,28.9-3.112c3.978-.806,7.956-1.584,11.933-2.389V11.587c-8.378-2-16.333-5.168-24.993-6.224a147.261,147.261,0,0,0-17.037-.972Z" transform="translate(-22.054 -4.391)" fill="#16181c"/>
      </g>
      <g id="Group_71544" data-name="Group 71544" transform="translate(0.037 284.088)">
        <path id="Path_14255" data-name="Path 14255" d="M27.388,11.338a54.547,54.547,0,0,1,7.85.5C53.3,14.422,65.229,23.98,70.685,40.206c3.52,10.28,3.2,21.644-1.056,34.757-4.647,14.114-14.785,22.644-30.977,26.089-11.264,2.445-22.388,2.639-35.8,2.639H1.409V82.437c.669-.528,1.514-.556,2.922-.611h.493C5.88,81.8,6.971,81.8,8.062,81.8h1.69a84.109,84.109,0,0,0,11.264-.528C40.94,78.492,53.4,65.822,52.7,49.041,52.24,38.622,44.214,30.87,32.14,29.314a27.6,27.6,0,0,0-4.119-.278,46.741,46.741,0,0,0-5.315.333A137.681,137.681,0,0,0,4.049,33.121l-.387.083a6.145,6.145,0,0,1-1.514.306,1.212,1.212,0,0,1-.739-.222V14.061H1.55c3.274-.361,6.583-.75,9.856-1.278a109.164,109.164,0,0,1,15.981-1.445m0-1.111A107.231,107.231,0,0,0,11.125,11.7c-3.661.583-7.392.972-11.124,1.417V33.7a2.808,2.808,0,0,0,2.147.889,10.4,10.4,0,0,0,2.323-.417,139.26,139.26,0,0,1,18.41-3.7,45.591,45.591,0,0,1,5.139-.333,29.789,29.789,0,0,1,3.872.25c11.476,1.5,18.974,8.752,19.4,18.671.669,16.253-11.405,28.423-30.52,31.118a85.735,85.735,0,0,1-11.018.5H8.062c-1.126,0-2.218,0-3.309.028-1.76.056-3.52-.028-4.752,1.361V104.8H2.852c12.18,0,24.254-.083,36.152-2.667,16.967-3.612,27.351-12.808,32-26.922,3.767-11.641,5.069-23.561,1.056-35.313-5.28-15.559-16.826-26.311-36.574-29.145a56.275,56.275,0,0,0-8.1-.528Z" transform="translate(-0.001 -10.227)" fill="#16181c"/>
      </g>
      <g id="Group_71545" data-name="Group 71545" transform="translate(595.195 52.595)">
        <path id="Path_14256" data-name="Path 14256" d="M27.39,1.9V3.034c10.842,0,20.558,2.751,32.139,6.446,12.989,4.14,28.478,8.78,44.459,11.614a28.121,28.121,0,0,1,7.78,2.028c6.477,3.2,7.5,5.612,4.717,10.891a21.985,21.985,0,0,1-3.8,5.334l-1.3,1.334c-4.259,4.223-8.519,8.418-12.813,12.7C87.338,64.686,79.629,75.744,75.017,87.191c-3.731,9.252-5.315,19.81-4.682,31.34,0,1.973,0,3.779.035,5.446.035,3.2.07,5.751-.106,8.335-.352,5.557-1.2,12.03-5.1,18.087a23.012,23.012,0,0,1-8.589,7.918,16.1,16.1,0,0,1-7.674,2.112c-5.245,0-9.786-3.084-12.391-8.446-2.394-5.112-2.781-10.641-3.168-16.031l-.07-1.195c-.282-4.2-.282-8.446-.246-12.558,0-4.5.035-9.169-.352-13.781-.845-10.558-.845-21.338-.775-31.785V70.6a107.056,107.056,0,0,0-2.358-20.365A139.1,139.1,0,0,0,24.82,33.9c-.915-2.723-1.8-5.418-2.57-8.2-.387-1.306-.88-2.639-1.3-3.973-1.443-4.279-2.816-8.28-2.6-12.7.141-2.639,1.514-5.835,7.146-6h1.9V1.9m0,0c-.634,0-1.3,0-1.971.028-5.21.167-8.237,2.723-8.483,7.057-.317,5.973,2.253,11.419,3.942,17,2.429,8.168,5.6,16.115,7.251,24.422a103.009,103.009,0,0,1,2.359,20.2c0,12.614-.246,25.255.774,37.869.7,8.835,0,17.559.634,26.339.387,5.89.634,11.919,3.309,17.559,2.957,6.112,8.1,9.169,13.693,9.169a18.244,18.244,0,0,0,8.519-2.278,24.94,24.94,0,0,0,9.012-8.363c3.731-5.807,4.858-12.114,5.28-18.532.211-4,0-7.946,0-13.864-.458-9.224.387-20.31,4.647-30.979,5.034-12.53,13.376-23.394,23.339-33.452,4.717-4.7,9.4-9.363,14.116-14.031a22.356,22.356,0,0,0,3.978-5.612c2.922-5.5,2.006-8.641-5.245-12.253A29.818,29.818,0,0,0,104.3,20.01c-15.207-2.7-29.78-6.946-44.248-11.558C49.5,5.09,38.9,1.9,27.39,1.9Z" transform="translate(-16.908 -1.895)" fill="#16181c"/>
      </g>
      <g id="Group_71546" data-name="Group 71546" transform="translate(0.037 302.676)">
        <path id="Path_14257" data-name="Path 14257" d="M28.62,11.98l1.232.028c9.364.25,17.354,5.251,20.276,12.7,2.992,7.835,1.584,16.559-3.907,23.977A35.1,35.1,0,0,1,24.114,61.962,92.173,92.173,0,0,1,7.921,62.99H5.281c-1.3,0-2.57,0-3.872.028V16.647c1.126-.194,2.218-.445,3.379-.722l1.126-.278c7.357-1.778,14.961-3.667,22.7-3.667m0-1.084c-8.378,0-16.263,2.056-24.254,3.973-1.443.361-2.851.611-4.365.917V64.157c1.76-.083,3.555-.083,5.28-.083h2.64A91.159,91.159,0,0,0,24.4,63.046C44.707,59.49,57.8,40.9,51.465,24.371c-3.1-7.863-11.652-13.2-21.578-13.447L28.62,10.9Z" transform="translate(-0.001 -10.896)" fill="#16181c"/>
      </g>
      <g id="Group_71547" data-name="Group 71547" transform="translate(213.293 117.219)">
        <path id="Path_14258" data-name="Path 14258" d="M15.276,5.36a24.271,24.271,0,0,1,3.978.417c6.653,1.445,12.672,4.473,18.481,7.39l1.373.695C51.639,20.2,63.995,26.754,75.928,33.116c8.167,4.279,16.017,8.585,22.494,14.336,6.688,6.029,9.68,12.114,9.293,19.115.458,5.223-1.9,9.947-7.181,14.586C93.7,87.1,85.4,91.156,78.92,94.018l-4.787,2.112c-9.434,4.223-19.29,8.585-28.372,13.67a73.667,73.667,0,0,1-10.631,5.14,16.28,16.28,0,0,1-5.491,1.111c-4.752,0-7.709-3.056-7.991-8.168a37.959,37.959,0,0,1,.986-10.252,69.2,69.2,0,0,0-1.408-34.257c-1.549-5.112-3.415-10.224-5.245-15.087-2.077-5.529-4.154-11.225-5.773-16.948C8.658,25.726,7.25,19.641,7.5,13.445c.176-5.39,2.816-8.085,7.779-8.085m0-1.139C9.5,4.221,6.3,7.361,6.089,13.39,5.842,19.558,7.18,25.614,8.834,31.616,11.9,42.479,16.614,52.842,19.852,63.595A68.939,68.939,0,0,1,21.26,97.435a38.875,38.875,0,0,0-1.021,10.474c.317,5.918,3.943,9.252,9.4,9.252a17.914,17.914,0,0,0,6.09-1.223,79.4,79.4,0,0,0,10.842-5.223C57.13,104.8,68.43,99.991,79.589,94.99c7.991-3.529,15.629-7.529,21.966-13.058,4.963-4.362,8.1-9.308,7.568-15.309.422-8.057-3.415-14.336-9.645-19.865C92.789,40.784,84.834,36.45,76.7,32.2c-12.18-6.5-24.43-13-36.821-19.282C33.44,9.694,27,6.333,19.606,4.721a23.325,23.325,0,0,0-4.33-.5Z" transform="translate(-6.059 -4.221)" fill="#16181c"/>
      </g>
      <g id="Group_71548" data-name="Group 71548" transform="translate(473.152 354.326)">
        <path id="Path_14259" data-name="Path 14259" d="M24.1,13.866a5.161,5.161,0,0,1,3.379,1.389c4.576,3.7,5.808,10.113,2.781,14.364-2.077,3.028-4.365,4.5-7.287,4.723a7.89,7.89,0,0,1-4.048-1.306,8.475,8.475,0,0,1-4.048-8.307c.352-4.223,3.239-8.7,6.477-10.2a7.512,7.512,0,0,1,2.746-.667m0-1.111a8.514,8.514,0,0,0-3.415.834c-6.3,2.89-11.229,15.031-2.64,20.338a9.625,9.625,0,0,0,5.069,1.528c4.083-.306,6.618-2.695,8.378-5.279,3.415-4.834,1.8-11.836-2.992-15.7a6.879,6.879,0,0,0-4.4-1.723Z" transform="translate(-13.441 -12.755)" fill="#16181c"/>
      </g>
      <g id="Group_71549" data-name="Group 71549" transform="translate(228.74 407.392)">
        <path id="Path_14260" data-name="Path 14260" d="M19.03,15.776a18.7,18.7,0,0,1,4.858.722,26.451,26.451,0,0,1,11.44,6.335H8.68l.211-.5c1.478-3,4.4-6.557,10.138-6.557m0-1.111a12.137,12.137,0,0,0-11.44,7.279c-.317.695-.739,1.306-1.091,2H38.074c-3.379-4.223-8.167-6.835-13.693-8.474a20.16,20.16,0,0,0-5.351-.806Z" transform="translate(-6.498 -14.665)" fill="#16181c"/>
      </g>
      <g id="Group_71550" data-name="Group 71550" transform="translate(33.556 151.282)">
        <path id="Path_14261" data-name="Path 14261" d="M86.556,6.531a12.838,12.838,0,0,1,10.173,4.89,13.667,13.667,0,0,1,2.64,5.862c1.373,5.973.563,12.058-.282,17.92-.246,1.667-.422,3.306-.634,4.973a119.088,119.088,0,0,0-.88,23.394l.458,5.223c.6,7.14,1.2,14.5,1.408,21.755.246,8.418-.986,15.225-3.872,21.366-2.006,4.279-5.1,6.335-9.5,6.335a18.331,18.331,0,0,1-4.224-.556A56.663,56.663,0,0,1,67.3,111.72l-1.936-1.084C51.777,103.023,37.766,95.1,24,87.242c-4.752-2.751-9.751-5.751-13.8-9.641C.418,68.183-.181,60.014,8.092,51.151A43.319,43.319,0,0,1,16.646,44.4c5.527-3.334,11.229-6.668,16.721-9.808,9.575-5.529,19.466-11.225,28.654-17.5,5.139-3.5,12.039-7.779,20.311-9.947a16.261,16.261,0,0,1,4.224-.611h0m0-1.084a17.4,17.4,0,0,0-4.682.667C74.059,8.17,67.406,11.976,61.1,16.255,46.672,26.118,30.867,34.314,15.8,43.483a44.311,44.311,0,0,0-8.836,7C-2.469,60.542-.075,69.433,9.113,78.3c4.048,3.89,9.012,6.918,14.081,9.835,14.362,8.252,28.795,16.365,43.262,24.505a59.293,59.293,0,0,0,14.961,6.112,19.023,19.023,0,0,0,4.647.611c5,0,8.624-2.389,10.807-7.057,3.274-7,4.189-14.336,3.978-21.782-.282-9-1.126-18-1.866-27.006a119.631,119.631,0,0,1,.88-23.255c.845-7.724,2.71-15.392.88-23.172a14.6,14.6,0,0,0-2.816-6.251,14.339,14.339,0,0,0-11.37-5.39Z" transform="translate(-0.953 -5.447)" fill="#16181c"/>
      </g>
      <g id="Group_71551" data-name="Group 71551" transform="translate(396.137 174.621)">
        <path id="Path_14262" data-name="Path 14262" d="M116.174,7.426a20.281,20.281,0,0,1,4.013.556l.528.111a22.251,22.251,0,0,1,13.975,8.5c3.309,4.64,4.154,10.058,2.182,14.781a30.5,30.5,0,0,1-8.378,11.169c-3.731,3.2-7.779,6.224-11.616,9.224-2.218,1.611-4.33,3.251-6.477,4.946C98.926,65.827,87.028,76.385,72.947,89.944c-7.463,7.14-16.721,15.2-28.724,20.838-7.5,3.529-14.01,5.307-20.7,5.64-.352.028-.739.028-1.162.028-3.907,0-6.583-1-8.448-3.2-2.077-2.445-1.373-4.807.528-8.057a42.57,42.57,0,0,1,6.442-9.057A140.643,140.643,0,0,0,50.031,54.492c5.034-10.863,11.44-19.337,19.607-25.839A124.931,124.931,0,0,1,99.066,11.427,49.235,49.235,0,0,1,115.4,7.454l.774-.028m0-1.139-.88.056a50.058,50.058,0,0,0-16.861,4.112A125.612,125.612,0,0,0,68.688,27.847c-9.223,7.335-15.418,16.42-19.959,26.283A139.8,139.8,0,0,1,19.793,95.473a41.85,41.85,0,0,0-6.618,9.252c-1.76,3-3.062,6.029-.422,9.141,2.394,2.862,5.879,3.7,9.61,3.7.422,0,.88,0,1.267-.028a55.952,55.952,0,0,0,21.262-5.807C56.3,106.419,65.449,98.862,74,90.638c11.933-11.447,24.254-22.671,37.419-33.146,6.019-4.751,12.32-9.2,18.094-14.2a31.563,31.563,0,0,0,8.695-11.558c4.224-10.308-4.119-22.421-17.143-24.728a24.407,24.407,0,0,0-4.893-.722Z" transform="translate(-11.253 -6.287)" fill="#16181c"/>
      </g>
      <g id="Group_71552" data-name="Group 71552" transform="translate(692.611 232.994)">
        <path id="Path_14263" data-name="Path 14263" d="M48.025,8.388V9.5c3.7,0,7.85,1.25,12.672,3.862A94.144,94.144,0,0,1,88.824,36.144c3.872,4.64,6.019,8.5,7.04,12.53a4.853,4.853,0,0,1-1.056,4.5,6.825,6.825,0,0,1-4.189,2.084,44.076,44.076,0,0,1-6.653.667L82.945,55.9c-10.807-.583-21.4-1.611-31.435-3-7.78-1.084-16.017-2.417-23.444-5.862-5.7-2.584-8.1-7.224-6.477-12.419A39.187,39.187,0,0,1,31.8,17.834C37.887,12,42.78,9.5,48.025,9.5V8.388m0,0c-6.125,0-11.44,3.084-17.354,8.724A40.446,40.446,0,0,0,20.216,34.338c-1.8,5.751.95,10.836,7.181,13.642,7.463,3.473,15.629,4.862,23.831,6,10.525,1.473,21.05,2.445,31.611,3.028.352.028.774.028,1.126.028a43.368,43.368,0,0,0,6.864-.695c4.611-.611,7.357-4.029,6.407-7.891-1.162-4.807-3.943-8.974-7.216-12.919A95.159,95.159,0,0,0,61.472,12.444C56.4,9.694,52.038,8.388,48.025,8.388Z" transform="translate(-19.676 -8.388)" fill="#16181c"/>
      </g>
    </g>
  </g>
</svg>
